<svg viewBox="0 0 1600 300" xmlns="http://www.w3.org/2000/svg">
  <defs>
    <radialGradient id="bg3" cx="10%" cy="20%" r="95%">
      <stop offset="0%" stop-color="#ff8a3d"/>
      <stop offset="75%" stop-color="#7a3a06"/>
    </radialGradient>
    <linearGradient id="chip3" x1="0" y1="0" x2="1" y2="1">
      <stop offset="0%" stop-color="rgba(255,255,255,0.22)"/>
      <stop offset="100%" stop-color="rgba(255,255,255,0.08)"/>
    </linearGradient>
  </defs>
  <rect width="1600" height="300" fill="url(#bg3)"/>
  <circle cx="1480" cy="50" r="200" fill="#ffffff" opacity="0.07"/>
  <circle cx="1550" cy="260" r="130" fill="#ffffff" opacity="0.06"/>

  <rect x="56" y="48" width="260" height="30" rx="15" fill="rgba(255,255,255,0.18)"/>
  <text x="76" y="68" font-family="Arial, sans-serif" font-size="13" font-weight="800" letter-spacing="1.4" fill="#fff">SAP B1 LEARNING &amp; TIPS</text>

  <text x="56" y="138" font-family="Arial, sans-serif" font-size="44" font-weight="800" fill="#fff">SAP Business One</text>
  <text x="56" y="185" font-family="Arial, sans-serif" font-size="44" font-weight="800" fill="#fff">Tips &amp; Articles</text>

  <text x="56" y="223" font-family="Arial, sans-serif" font-size="17" fill="#ffe9d8" opacity="0.95">Articles, tutorials, best practices, and troubleshooting resources</text>
  <text x="56" y="245" font-family="Arial, sans-serif" font-size="17" fill="#ffe9d8" opacity="0.95">for SAP Business One.</text>

  <rect x="56" y="262" width="170" height="34" rx="9" fill="#ffffff"/>
  <text x="141" y="284" font-family="Arial, sans-serif" font-size="14" font-weight="800" fill="#7a3a06" text-anchor="middle">Read Articles &#8594;</text>

  <rect x="1430" y="100" width="100" height="100" rx="20" fill="url(#chip3)" stroke="rgba(255,255,255,0.32)" stroke-width="1.5"/>
  <path d="M1455 130v45a3 3 0 0 0 3 3h45M1500 122h28v28" stroke="#fff" stroke-width="2.6" fill="none" stroke-linecap="round" stroke-linejoin="round" transform="translate(0,-2)"/>
  <rect x="1453" y="118" width="46" height="58" rx="4" fill="none" stroke="#fff" stroke-width="2.6"/>
</svg>
