<svg viewBox="0 0 1600 300" xmlns="http://www.w3.org/2000/svg">
  <defs>
    <radialGradient id="bg2" cx="10%" cy="20%" r="95%">
      <stop offset="0%" stop-color="#2a4fc9"/>
      <stop offset="70%" stop-color="#14245e"/>
    </radialGradient>
    <linearGradient id="chip2" x1="0" y1="0" x2="1" y2="1">
      <stop offset="0%" stop-color="rgba(255,255,255,0.22)"/>
      <stop offset="100%" stop-color="rgba(255,255,255,0.08)"/>
    </linearGradient>
  </defs>
  <rect width="1600" height="300" fill="url(#bg2)"/>
  <circle cx="1450" cy="60" r="220" fill="#ffffff" opacity="0.06"/>
  <circle cx="1530" cy="260" r="140" fill="#ffffff" opacity="0.07"/>

  <g opacity="0.5">
    <line x1="900" y1="0" x2="1600" y2="220" stroke="#ffffff" stroke-width="1" opacity="0.08"/>
    <line x1="1000" y1="300" x2="1600" y2="40" stroke="#ffffff" stroke-width="1" opacity="0.08"/>
  </g>

  <rect x="56" y="48" width="280" height="30" rx="15" fill="rgba(255,255,255,0.16)"/>
  <text x="76" y="68" font-family="Arial, sans-serif" font-size="13" font-weight="800" letter-spacing="1.4" fill="#fff">SAP B1 IMPLEMENTATION PARTNER</text>

  <text x="56" y="135" font-family="Arial, sans-serif" font-size="44" font-weight="800" fill="#fff">STEM Consulting</text>
  <text x="56" y="182" font-family="Arial, sans-serif" font-size="44" font-weight="800" fill="#fff">&amp; Technology Solutions</text>

  <text x="56" y="222" font-family="Arial, sans-serif" font-size="17" fill="#dbe6ff" opacity="0.92">A trusted partner for SAP Business One implementation, business solution</text>
  <text x="56" y="244" font-family="Arial, sans-serif" font-size="17" fill="#dbe6ff" opacity="0.92">development, consulting, and enterprise digital transformation.</text>

  <rect x="56" y="262" width="190" height="34" rx="9" fill="#ffffff"/>
  <text x="151" y="284" font-family="Arial, sans-serif" font-size="14" font-weight="800" fill="#14245e" text-anchor="middle">Visit Website &#8594;</text>

  <!-- icon chip -->
  <rect x="1430" y="100" width="100" height="100" rx="20" fill="url(#chip2)" stroke="rgba(255,255,255,0.3)" stroke-width="1.5"/>
  <rect x="1455" y="125" width="50" height="50" rx="8" fill="none" stroke="#fff" stroke-width="2.6"/>
  <path d="M1470 150h20M1480 140v20" stroke="#fff" stroke-width="2.6" stroke-linecap="round"/>
</svg>
